<svg fill="none" viewBox="0 0 344 275" xmlns="http://www.w3.org/2000/svg">
<path d="m171.47 121.16l0.53 0.331 0.53-0.331 137.6-85.938 2.959-1.8482h-282.18l2.9592 1.8482 137.6 85.938zm-138.07 119.46v1h277.2v-168.32l-1.529 0.953-137.07 85.436-137.07-85.436-1.529-0.953v167.32zm1-239.62h275.2c8.858 0 17.354 3.5165 23.618 9.7756 6.263 6.259 9.782 14.748 9.782 23.599v206.25c0 8.851-3.519 17.34-9.782 23.599-6.264 6.26-14.76 9.776-23.618 9.776h-275.2c-18.537 0-33.4-15.018-33.4-33.375v-206.25c0-18.525 14.86-33.375 33.4-33.375z" stroke="url(#a)" stroke-width="2"/>
<defs>
<linearGradient id="a" x1="172" x2="172" y2="275" gradientUnits="userSpaceOnUse">
<stop stop-color="#EF3E36" offset="0"/>
<stop stop-color="#177E89" offset="1"/>
</linearGradient>
</defs>
</svg>
